<?xml version="1.0" encoding="UTF-8"?> <svg xmlns="http://www.w3.org/2000/svg" xmlns:xlink="http://www.w3.org/1999/xlink" id="Layer_1" data-name="Layer 1" viewBox="0 0 180 90"><defs><style> .cls-1 { fill: none; } .cls-2 { clip-path: url(#clip-path); } .cls-3 { fill: #092332; } .cls-4 { clip-path: url(#clip-path-2); } .cls-5 { clip-path: url(#clip-path-3); } .cls-6 { clip-path: url(#clip-path-4); } </style><clipPath id="clip-path"><rect class="cls-1" x="28.17" y="18" width="16.28" height="16.28"></rect></clipPath><clipPath id="clip-path-2"><rect class="cls-1" x="55.31" y="18" width="16.28" height="16.28"></rect></clipPath><clipPath id="clip-path-3"><rect class="cls-1" x="82.44" y="18" width="16.28" height="16.28"></rect></clipPath><clipPath id="clip-path-4"><rect class="cls-1" x="109.58" y="18" width="16.28" height="16.28"></rect></clipPath></defs><g class="cls-2"><path class="cls-3" d="M36.31,30.39l-4.78,2.68,1.06-5.38-4-3.73L34,23.32l2.3-5,2.3,5,5.44.64-4,3.73,1.07,5.38Z"></path></g><g class="cls-4"><path class="cls-3" d="M63.45,30.39l-4.79,2.68,1.07-5.38L55.7,24l5.45-.64,2.3-5,2.29,5,5.45.64-4,3.73,1.07,5.38Z"></path></g><g class="cls-5"><path class="cls-3" d="M90.58,30.39,85.8,33.07l1.07-5.38-4-3.73,5.45-.64,2.29-5,2.3,5,5.45.64-4,3.73,1.07,5.38Z"></path></g><g class="cls-6"><path class="cls-3" d="M117.72,30.39l-4.78,2.68L114,27.69,110,24l5.45-.64,2.29-5,2.3,5,5.44.64-4,3.73,1.07,5.38Z"></path></g><path class="cls-3" d="M37.5,57H53V51.5Z"></path><path class="cls-3" d="M53,51.26V72l7.5-23.5Z"></path><path class="cls-3" d="M53,57H47.5L53,72V57Z"></path><path class="cls-3" d="M37.5,57,49,61l-1.55-4Z"></path><path class="cls-3" d="M73.26,66.5a2.3,2.3,0,0,1-.43.31,3.65,3.65,0,0,1-.77.39,6,6,0,0,1-1.17.33,8.29,8.29,0,0,1-1.58.14,7.82,7.82,0,0,1-3-.54,5.54,5.54,0,0,1-2.07-1.54,6.4,6.4,0,0,1-1.19-2.34,10.6,10.6,0,0,1-.39-3,10.24,10.24,0,0,1,.42-3,6.88,6.88,0,0,1,1.25-2.37,5.67,5.67,0,0,1,2.07-1.56,7.16,7.16,0,0,1,2.93-.56,7.4,7.4,0,0,1,1.49.14A8.39,8.39,0,0,1,72,53.3a5.14,5.14,0,0,1,.82.42,4,4,0,0,1,.5.37,1.85,1.85,0,0,1,.33.4,1.06,1.06,0,0,1,.14.51,1.45,1.45,0,0,1-.32.85,5.74,5.74,0,0,1-.7.79,6,6,0,0,0-.58-.53,4.25,4.25,0,0,0-1.61-.81,4.29,4.29,0,0,0-1.12-.14,3.47,3.47,0,0,0-1.83.44,3.58,3.58,0,0,0-1.18,1.14,5,5,0,0,0-.63,1.6,9.26,9.26,0,0,0-.19,1.84,9.82,9.82,0,0,0,.19,1.91,4.51,4.51,0,0,0,.67,1.62,3.49,3.49,0,0,0,1.23,1.12,3.82,3.82,0,0,0,1.88.42,3.81,3.81,0,0,0,2-.51,5.19,5.19,0,0,0,.67-.44c.19-.15.35-.29.47-.4l.3.37a4.07,4.07,0,0,1,.32.44c.1.16.17.31.26.47a1.06,1.06,0,0,1,.1.42,1,1,0,0,1-.1.48A3.11,3.11,0,0,1,73.26,66.5Zm10.95-1.63a4.66,4.66,0,0,0,.49,2.45,2.75,2.75,0,0,1-.72.21,4.05,4.05,0,0,1-.7.07,2,2,0,0,1-1.16-.29,1.4,1.4,0,0,1-.51-.86,3.8,3.8,0,0,1-1.25.84,4.57,4.57,0,0,1-1.87.33,4.16,4.16,0,0,1-1.16-.16,3,3,0,0,1-1.06-.52,2.9,2.9,0,0,1-.77-1,3.4,3.4,0,0,1-.3-1.47,2.82,2.82,0,0,1,.53-1.77,3.76,3.76,0,0,1,1.32-1.08,6.37,6.37,0,0,1,1.7-.54,16.63,16.63,0,0,1,1.68-.19,4.43,4.43,0,0,1,.51,0h.46v-.39A1.41,1.41,0,0,0,81,59.34,2.33,2.33,0,0,0,79.54,59a4.12,4.12,0,0,0-1.63.3A11.4,11.4,0,0,0,76.5,60a2.86,2.86,0,0,1-.47-.81,2,2,0,0,1-.18-.65.8.8,0,0,1,.34-.58,3.2,3.2,0,0,1,.91-.5,7.06,7.06,0,0,1,1.33-.37A8.76,8.76,0,0,1,80,56.92a7.28,7.28,0,0,1,1.95.22,3.26,3.26,0,0,1,1.3.72A2.87,2.87,0,0,1,84,59.09a6.33,6.33,0,0,1,.21,1.72Zm-2.74-2.48h-.3a1.56,1.56,0,0,0-.3,0q-.53,0-1.05.12a2.83,2.83,0,0,0-.93.3,2.13,2.13,0,0,0-.67.56,1.46,1.46,0,0,0-.26.88,1.54,1.54,0,0,0,.33,1,1.43,1.43,0,0,0,1.16.42,2.81,2.81,0,0,0,.77-.11,2.13,2.13,0,0,0,.65-.28,1.53,1.53,0,0,0,.44-.37.62.62,0,0,0,.16-.36Zm8-4.21a4.35,4.35,0,0,1,1.08-.83,3.58,3.58,0,0,1,1.82-.42,4.21,4.21,0,0,1,1.51.27,3.3,3.3,0,0,1,1.26.86,4.21,4.21,0,0,1,.88,1.58,7.33,7.33,0,0,1,.33,2.42A8.29,8.29,0,0,1,96,64.81a4.72,4.72,0,0,1-1,1.71,3.45,3.45,0,0,1-1.36.89,4.33,4.33,0,0,1-1.49.26,3.8,3.8,0,0,1-1.07-.14,3.25,3.25,0,0,1-.77-.31,2.3,2.3,0,0,1-.49-.34,1.7,1.7,0,0,1-.21-.22v5.26H86.73V57.25a1,1,0,0,1,.27,0l.3,0,.4,0a2.78,2.78,0,0,1,1.21.23A1.1,1.1,0,0,1,89.52,58.18Zm3.87,4a6.34,6.34,0,0,0-.11-1.19,3.09,3.09,0,0,0-.35-1,1.85,1.85,0,0,0-.67-.63,2,2,0,0,0-1-.23,1.86,1.86,0,0,0-1.24.33,1.06,1.06,0,0,0-.35.76v4.54a2,2,0,0,0,.61.41,2.1,2.1,0,0,0,1,.23,1.75,1.75,0,0,0,1.6-.86A4.77,4.77,0,0,0,93.39,62.13Zm5.26,3.68a3.61,3.61,0,0,1-.19-.89,7.55,7.55,0,0,1,0-1V54.06a1.75,1.75,0,0,1,.32,0c.1,0,.21,0,.31,0l.34,0a3.14,3.14,0,0,1,.68.07,1.27,1.27,0,0,1,.62.26,1.31,1.31,0,0,1,.45.53,2,2,0,0,1,.18.86v1.52h3v2.16h-3v4.57c0,1,.4,1.49,1.21,1.49a2.11,2.11,0,0,0,.56-.09l.47-.21a1.71,1.71,0,0,0,.37-.25c.11-.08.18-.15.23-.19a6.22,6.22,0,0,1,.49.81,1.52,1.52,0,0,1,.18.65.77.77,0,0,1-.23.54,2.3,2.3,0,0,1-.63.49,3.47,3.47,0,0,1-1,.37,5.46,5.46,0,0,1-1.26.14,3.62,3.62,0,0,1-2.07-.51A3.1,3.1,0,0,1,98.65,65.81Zm13-.28a3.13,3.13,0,0,0,1-.12,4.35,4.35,0,0,0,.74-.28,4.18,4.18,0,0,0,.56-.37l.42-.37a6,6,0,0,1,.54.83,1.65,1.65,0,0,1,.28.82,1.07,1.07,0,0,1-.52.86,4.26,4.26,0,0,1-1.28.6,7,7,0,0,1-1.94.24,7.43,7.43,0,0,1-2-.26,4.26,4.26,0,0,1-3-2.61,6.76,6.76,0,0,1-.48-2.72,5.83,5.83,0,0,1,.42-2.32,4.62,4.62,0,0,1,1.11-1.61,4.31,4.31,0,0,1,1.58-.95,5.42,5.42,0,0,1,1.79-.3,5,5,0,0,1,2,.37,3.57,3.57,0,0,1,1.36,1,3.89,3.89,0,0,1,.75,1.44,5.92,5.92,0,0,1,.23,1.7v.3a2.42,2.42,0,0,1,0,.37c0,.12,0,.24,0,.36a1.07,1.07,0,0,1,0,.29h-6.3a3.34,3.34,0,0,0,.73,2A2.53,2.53,0,0,0,111.69,65.53Zm1-4.33a3.15,3.15,0,0,0-.4-1.67,1.55,1.55,0,0,0-1.42-.65,1.75,1.75,0,0,0-1.41.62,2.49,2.49,0,0,0-.52,1.7Zm7.69-3c.09-.12.19-.26.33-.42a2,2,0,0,1,.53-.42,4.72,4.72,0,0,1,.68-.32,2.6,2.6,0,0,1,.81-.12,5.48,5.48,0,0,1,.55,0,2.1,2.1,0,0,1,.52.15,1.07,1.07,0,0,1,.41.32.81.81,0,0,1,.15.49,3,3,0,0,1-.22,1.07,8,8,0,0,1-.48,1,3.46,3.46,0,0,0-.72-.46,2.2,2.2,0,0,0-.86-.16,1.59,1.59,0,0,0-1.1.39,1.19,1.19,0,0,0-.46.93v6.91h-2.91V57.23a1,1,0,0,1,.26,0l.3,0,.4,0a2.53,2.53,0,0,1,1.2.27A1.28,1.28,0,0,1,120.36,58.23Zm8.27,0a4.2,4.2,0,0,1,.33-.42,2,2,0,0,1,.53-.42,4.72,4.72,0,0,1,.68-.32A2.6,2.6,0,0,1,131,57a5.29,5.29,0,0,1,.54,0,2.18,2.18,0,0,1,.53.15,1,1,0,0,1,.4.32.76.76,0,0,1,.16.49,2.87,2.87,0,0,1-.23,1.07,8.07,8.07,0,0,1-.47,1,3.74,3.74,0,0,0-.72-.46,2.27,2.27,0,0,0-.86-.16,1.64,1.64,0,0,0-1.11.39,1.21,1.21,0,0,0-.45.93v6.91h-2.92V57.23a1,1,0,0,1,.27,0l.3,0,.4,0a2.46,2.46,0,0,1,1.19.27A1.26,1.26,0,0,1,128.63,58.23Zm13.88,6.64a4.66,4.66,0,0,0,.49,2.45,2.75,2.75,0,0,1-.72.21,4.05,4.05,0,0,1-.7.07,2,2,0,0,1-1.16-.29,1.4,1.4,0,0,1-.51-.86,3.7,3.7,0,0,1-1.25.84,4.54,4.54,0,0,1-1.87.33,4.16,4.16,0,0,1-1.16-.16,2.87,2.87,0,0,1-1-.52,2.81,2.81,0,0,1-.78-1,3.41,3.41,0,0,1-.29-1.47,2.82,2.82,0,0,1,.52-1.77,3.76,3.76,0,0,1,1.32-1.08,6.37,6.37,0,0,1,1.7-.54,16.49,16.49,0,0,1,1.69-.19,4.18,4.18,0,0,1,.5,0h.46v-.39a1.41,1.41,0,0,0-.44-1.17,2.33,2.33,0,0,0-1.42-.35,4.16,4.16,0,0,0-1.63.3,11.4,11.4,0,0,0-1.41.68,2.86,2.86,0,0,1-.47-.81,2,2,0,0,1-.18-.65.8.8,0,0,1,.34-.58,3.2,3.2,0,0,1,.91-.5,7.28,7.28,0,0,1,1.33-.37,8.85,8.85,0,0,1,1.58-.14,7.18,7.18,0,0,1,1.95.22,3.26,3.26,0,0,1,1.3.72,2.87,2.87,0,0,1,.72,1.23,6.33,6.33,0,0,1,.21,1.72Zm-2.74-2.48h-.3a1.56,1.56,0,0,0-.3,0q-.53,0-1,.12a2.83,2.83,0,0,0-.93.3,2.13,2.13,0,0,0-.67.56,1.46,1.46,0,0,0-.26.88,1.6,1.6,0,0,0,.33,1,1.43,1.43,0,0,0,1.16.42,2.81,2.81,0,0,0,.77-.11,2.13,2.13,0,0,0,.65-.28,1.53,1.53,0,0,0,.44-.37.62.62,0,0,0,.16-.36Z"></path><polygon class="cls-3" points="145.2 18.34 145.2 18.34 142.9 23.32 137.46 23.96 141.48 27.69 140.41 33.07 145.2 30.39 145.2 30.39 145.2 18.34"></polygon></svg> 