<?xml version="1.0" encoding="UTF-8"?> <svg xmlns="http://www.w3.org/2000/svg" xmlns:xlink="http://www.w3.org/1999/xlink" id="Layer_1" data-name="Layer 1" viewBox="0 0 180 90"><defs><style> .cls-1 { fill: none; } .cls-2 { fill: #092332; } .cls-3 { clip-path: url(#clip-path); } .cls-4 { clip-path: url(#clip-path-2); } .cls-5 { clip-path: url(#clip-path-3); } .cls-6 { clip-path: url(#clip-path-4); } </style><clipPath id="clip-path"><rect class="cls-1" x="54.14" y="18" width="16.28" height="16.28"></rect></clipPath><clipPath id="clip-path-2"><rect class="cls-1" x="81.27" y="18" width="16.28" height="16.28"></rect></clipPath><clipPath id="clip-path-3"><rect class="cls-1" x="108.41" y="18" width="16.28" height="16.28"></rect></clipPath><clipPath id="clip-path-4"><rect class="cls-1" x="37.86" y="53.28" width="103.8" height="19"></rect></clipPath></defs><path class="cls-2" d="M35.14,30.39l-4.78,2.68,1.06-5.38L27.4,24l5.44-.64,2.3-5,2.3,5,5.44.64-4,3.73,1.07,5.38Z"></path><g class="cls-3"><path class="cls-2" d="M62.28,30.39l-4.79,2.68,1.07-5.38-4-3.73L60,23.32l2.3-5,2.3,5L70,24l-4,3.73,1.07,5.38Z"></path></g><g class="cls-4"><path class="cls-2" d="M89.41,30.39l-4.78,2.68,1.07-5.38-4-3.73,5.45-.64,2.29-5,2.3,5,5.45.64-4,3.73,1.07,5.38Z"></path></g><g class="cls-5"><path class="cls-2" d="M116.55,30.39l-4.78,2.68,1.07-5.38-4-3.73,5.45-.64,2.29-5,2.3,5,5.45.64-4,3.73,1.07,5.38Z"></path></g><g class="cls-6"><g><path class="cls-2" d="M63.93,60.45l-7-6.93a.6.6,0,0,0-.83,0l-1.38,1.37,5.61,5.56a.57.57,0,0,1,0,.82L54.56,67l1.38,1.37a.6.6,0,0,0,.83,0l7.15-7.08A.59.59,0,0,0,63.93,60.45Z"></path><path class="cls-2" d="M52,54l-.5-.5a.6.6,0,0,0-.83,0L49.31,54.9l.91.91L52,57.59l1.79-1.78Z"></path><path class="cls-2" d="M51.86,64.33l-1.79,1.78-.92.91,1.38,1.37a.6.6,0,0,0,.83,0l.5-.5,1.8-1.78Z"></path><path class="cls-2" d="M54.94,60.45a.59.59,0,0,1,0,.82l-3.08,3,1.8,1.78,4.87-4.83a.59.59,0,0,0,0-.82l-4.7-4.66L52,57.57Z"></path><path class="cls-2" d="M43.52,60.62l4.87-4.83L46.59,54l-.51-.49a.6.6,0,0,0-.83,0l-7.15,7.1a.57.57,0,0,0,0,.82l7,6.93a.6.6,0,0,0,.83,0l.52-.49,1.8-1.78-4.7-4.66A.57.57,0,0,1,43.52,60.62Z"></path><path class="cls-2" d="M48.94,60.62l2.14-2.12-1.79-1.78-.92-.91-4.83,4.83a.57.57,0,0,0,0,.82l4.68,4.64.91-.91,1.8-1.78-2-2A.59.59,0,0,1,48.94,60.62Z"></path><path class="cls-2" d="M48.94,61.44l2,2,2.14-2.12a.57.57,0,0,0,0-.82l-2-2-2.15,2.12A.64.64,0,0,0,48.94,61.44Z"></path><path class="cls-2" d="M69.55,59A6.72,6.72,0,0,1,70,56.7a5.31,5.31,0,0,1,1.21-1.78,5.67,5.67,0,0,1,2-1.15,8.49,8.49,0,0,1,2.73-.41,8.24,8.24,0,0,1,3,.47A5.74,5.74,0,0,1,80.86,55a3.64,3.64,0,0,1,1,1.35,3.71,3.71,0,0,1,.33,1.18.46.46,0,0,1-.15.41.64.64,0,0,1-.42.15H79.89a.51.51,0,0,1-.36-.12.61.61,0,0,1-.19-.24l-.22-.36a2.61,2.61,0,0,0-.57-.58,4.77,4.77,0,0,0-1-.55A4.51,4.51,0,0,0,75.94,56a3.66,3.66,0,0,0-2.54.83,3.18,3.18,0,0,0-1,2.28c0,.53,0,1.09,0,1.71s0,1.18,0,1.71a3.17,3.17,0,0,0,1,2.52,3.94,3.94,0,0,0,2.52.79,5.72,5.72,0,0,0,1.43-.18,3,3,0,0,0,1.13-.54,2.39,2.39,0,0,0,.74-1,3.68,3.68,0,0,0,.26-1.5v-.17H76.91a.5.5,0,0,1-.4-.17.54.54,0,0,1-.17-.4V60.36a.57.57,0,0,1,.57-.56h4.87a.57.57,0,0,1,.57.56v2.3A6.53,6.53,0,0,1,82,65a5,5,0,0,1-1.21,1.81,5.74,5.74,0,0,1-2,1.2,9.54,9.54,0,0,1-5.6,0,5.2,5.2,0,0,1-2-1.15A5.09,5.09,0,0,1,70,65a7.07,7.07,0,0,1-.45-2.31c0-.26,0-.57,0-.88v-2C69.51,59.54,69.53,59.27,69.55,59Z"></path><path class="cls-2" d="M88.86,59.64a3,3,0,0,0-1.06.18,2,2,0,0,0-.72.46,1.78,1.78,0,0,0-.45.63,1.94,1.94,0,0,0-.19.65h4.77a4.74,4.74,0,0,0-.16-.65,1.93,1.93,0,0,0-.38-.63,1.78,1.78,0,0,0-.69-.46A2.86,2.86,0,0,0,88.86,59.64Zm-5.17,3.14a6.66,6.66,0,0,1,.37-2.21,5.3,5.3,0,0,1,1-1.82,4.71,4.71,0,0,1,1.64-1.19,5.43,5.43,0,0,1,2.13-.45,5,5,0,0,1,2.12.43,5.18,5.18,0,0,1,1.66,1.16,5.32,5.32,0,0,1,1,1.7,5.62,5.62,0,0,1,.37,2v.94a.58.58,0,0,1-.57.57h-7a2,2,0,0,0,.19.84,1.91,1.91,0,0,0,.53.6,2.78,2.78,0,0,0,.78.37,3.19,3.19,0,0,0,.92.12,3.45,3.45,0,0,0,1.1-.13,2,2,0,0,0,.69-.35c.12-.08.25-.17.38-.24a1,1,0,0,1,.4-.06h1.69a.59.59,0,0,1,.42.17.42.42,0,0,1,.15.39,1.63,1.63,0,0,1-.33.75,3.28,3.28,0,0,1-.91.91,5.66,5.66,0,0,1-1.52.75,5.88,5.88,0,0,1-2.07.31A5.57,5.57,0,0,1,86.73,68a4.6,4.6,0,0,1-1.64-1.15,5.17,5.17,0,0,1-1-1.79A6.24,6.24,0,0,1,83.69,62.78Z"></path><path class="cls-2" d="M99.12,64.28a1.46,1.46,0,0,0,.34,1,1.7,1.7,0,0,0,1.3.39H102a.58.58,0,0,1,.57.57v1.38a.58.58,0,0,1-.57.57h-1.58a4.41,4.41,0,0,1-3-1,3.82,3.82,0,0,1-1.07-2.91v-4.5H95a.49.49,0,0,1-.39-.17.54.54,0,0,1-.18-.4V57.9a.48.48,0,0,1,.18-.39.53.53,0,0,1,.39-.18h1.4v-3.4a.58.58,0,0,1,.57-.57h1.61a.58.58,0,0,1,.57.57v3.4h2.73a.59.59,0,0,1,.55.57v1.38a.58.58,0,0,1-.57.57H99.08Z"></path><path class="cls-2" d="M113,62.76l-2.33-6-2.31,6Zm-1.17-9.19a.65.65,0,0,1,.5.17,1.57,1.57,0,0,1,.31.53l5.17,13.23a.71.71,0,0,1,0,.14.57.57,0,0,1-.57.56h-1.52a.76.76,0,0,1-.58-.17.93.93,0,0,1-.23-.34L114,65.36h-6.67l-.92,2.33a1.11,1.11,0,0,1-.22.34.72.72,0,0,1-.59.17h-1.52a.57.57,0,0,1-.57-.56.28.28,0,0,1,0-.14l5.16-13.23a1.6,1.6,0,0,1,.32-.53.65.65,0,0,1,.5-.17Z"></path><path class="cls-2" d="M126.85,63.36a5.72,5.72,0,0,0,0-1.17,2.74,2.74,0,0,0-.84-1.95,2.64,2.64,0,0,0-1.75-.6,2.6,2.6,0,0,0-1.74.6,2.48,2.48,0,0,0-.81,1.73,3.49,3.49,0,0,0,0,.79c0,.27,0,.53,0,.79a2.46,2.46,0,0,0,2.55,2.34,2.64,2.64,0,0,0,1.75-.6A2.69,2.69,0,0,0,126.85,63.36Zm-1.95,5.06a5.05,5.05,0,0,1-1.17-.12,4.49,4.49,0,0,1-.92-.3,4.38,4.38,0,0,1-.66-.43,3.39,3.39,0,0,1-.44-.41v4.45a.57.57,0,0,1-.57.56h-1.59a.57.57,0,0,1-.57-.56V57.9a.58.58,0,0,1,.57-.57h1.6a.58.58,0,0,1,.57.57v.48a2.49,2.49,0,0,1,.45-.41,3.84,3.84,0,0,1,.68-.41,4.25,4.25,0,0,1,.91-.31,5.14,5.14,0,0,1,1.18-.12,4.38,4.38,0,0,1,1.91.41,4.33,4.33,0,0,1,1.45,1.09,5,5,0,0,1,.95,1.58,5.89,5.89,0,0,1,.4,1.85c0,.2,0,.44,0,.73s0,.53,0,.74a5.57,5.57,0,0,1-.4,1.85A4.86,4.86,0,0,1,128.3,67a4.64,4.64,0,0,1-1.45,1.1A4.93,4.93,0,0,1,124.9,68.42Z"></path><path class="cls-2" d="M138.79,63.36a7.62,7.62,0,0,0,0-1.17,2.78,2.78,0,0,0-.85-1.95,2.6,2.6,0,0,0-1.74-.6,2.64,2.64,0,0,0-1.75.6,2.52,2.52,0,0,0-.81,1.73,4.18,4.18,0,0,0,0,.79c0,.27,0,.53,0,.79a2.56,2.56,0,0,0,.81,1.71,2.52,2.52,0,0,0,1.75.63,2.6,2.6,0,0,0,1.74-.6A2.73,2.73,0,0,0,138.79,63.36Zm-2,5a5.76,5.76,0,0,1-1.18-.12,4.25,4.25,0,0,1-.91-.31,3.89,3.89,0,0,1-.66-.41,4.28,4.28,0,0,1-.45-.41v4.45a.58.58,0,0,1-.57.56h-1.6a.57.57,0,0,1-.57-.56V57.9a.58.58,0,0,1,.57-.57h1.6a.58.58,0,0,1,.57.57v.48a3.41,3.41,0,0,1,.45-.41,4.53,4.53,0,0,1,.66-.41,4.25,4.25,0,0,1,.91-.31,5.14,5.14,0,0,1,1.18-.12,4.38,4.38,0,0,1,3.37,1.5,5.41,5.41,0,0,1,.95,1.58,6.17,6.17,0,0,1,.39,1.85c0,.2,0,.44,0,.73s0,.53,0,.74a5.56,5.56,0,0,1-.39,1.85,5.23,5.23,0,0,1-.95,1.57,5,5,0,0,1-1.45,1.1,4.77,4.77,0,0,1-1.92.41"></path></g></g><polygon class="cls-2" points="145.2 18.34 145.2 18.34 142.9 23.32 137.46 23.96 141.48 27.69 140.41 33.07 145.2 30.39 145.2 30.39 145.2 18.34"></polygon></svg> 