<?xml version="1.0" encoding="UTF-8"?> <svg xmlns="http://www.w3.org/2000/svg" xmlns:xlink="http://www.w3.org/1999/xlink" id="Layer_1" data-name="Layer 1" viewBox="0 0 180 90"><defs><style> .cls-1 { fill: none; } .cls-2 { clip-path: url(#clip-path); } .cls-3, .cls-5 { fill: #092332; } .cls-3 { fill-rule: evenodd; } .cls-4 { clip-path: url(#clip-path-2); } .cls-6 { clip-path: url(#clip-path-3); } </style><clipPath id="clip-path"><rect class="cls-1" x="27.83" y="48.21" width="124.83" height="24.42"></rect></clipPath><clipPath id="clip-path-2"><rect class="cls-1" x="28.51" y="18" width="16.28" height="16.28"></rect></clipPath><clipPath id="clip-path-3"><rect class="cls-1" x="55.65" y="18" width="16.28" height="16.28"></rect></clipPath></defs><g class="cls-2"><g><path class="cls-3" d="M151.94,66.72c0-.26-.22-.35-.44-.35h-.41v1.19h.21v-.5h.15l.28.5H152l-.32-.52a.32.32,0,0,0,.27-.32Zm-.64.17v-.34h.19c.11,0,.24,0,.24.16s-.14.18-.26.18Zm.2-1A1.06,1.06,0,1,0,152.55,67,1.05,1.05,0,0,0,151.5,65.91Zm0,2a.9.9,0,1,1,.88-.9.9.9,0,0,1-.88.9ZM83.87,66.09a2.75,2.75,0,0,1-.07-5.41,2.44,2.44,0,0,1,1.81.8l1.62-1.65a4.68,4.68,0,0,0-3.43-1.34,4.9,4.9,0,1,0,0,9.79A4.63,4.63,0,0,0,87.28,67l-1.59-1.72a2.49,2.49,0,0,1-1.82.77ZM74.77,68h2.52V58.75H74.77Zm-4.59-4.18a2.11,2.11,0,0,1-2,2.26c-1,0-1.54-.73-1.54-2.22V58.75H64.1V64.5c0,1.91.94,3.78,3.46,3.78a3.64,3.64,0,0,0,2.69-1.65h0V68H72.7V58.75H70.18v5.08Zm-10.64-3.9h0a3.9,3.9,0,0,0-2.89-1.44A4.6,4.6,0,0,0,52,63.35c0,2.85,1.83,4.93,4.43,4.93a4.05,4.05,0,0,0,2.94-1.38h0v5.68H62V58.75H59.54Zm-2.45,6.16a2.56,2.56,0,0,1-2.45-2.74,2.52,2.52,0,0,1,2.45-2.71,2.62,2.62,0,0,1,2.44,2.74,2.57,2.57,0,0,1-2.44,2.71Zm57.53-7.6a4.91,4.91,0,1,0,0,9.81,4.81,4.81,0,0,0,5-4.95,4.75,4.75,0,0,0-5-4.86Zm0,7.6a2.75,2.75,0,1,1,2.4-2.74,2.49,2.49,0,0,1-2.4,2.74Zm31.58-3.78c-1.3-.31-1.76-.48-1.76-1,0-.74.92-.9,1.33-.9a2.79,2.79,0,0,1,2,.92l1.49-1.44a4.43,4.43,0,0,0-3.47-1.39c-1.83,0-3.75.93-3.75,3,0,1.79,1.39,2.33,2.74,2.65s1.93.59,1.93,1.17c0,.86-1,1-1.29,1a3.27,3.27,0,0,1-2.3-1.1l-1.53,1.57a5.1,5.1,0,0,0,3.74,1.51c2.47,0,3.93-1.2,3.93-3.16s-1.79-2.52-3.06-2.83Zm-4.78-3.56h-3.26l-3.26,3.84h-.05V53.65h-2.53V68h2.53V63.45h.05L138.29,68h3.32L137.68,63ZM104,58.49a3.93,3.93,0,0,0-2.81,1.27h0V53.65H98.59V68H101V66.7h0a3.4,3.4,0,0,0,2.87,1.58,4.65,4.65,0,0,0,4.59-4.93A4.58,4.58,0,0,0,104,58.49Zm-.5,7.6A2.57,2.57,0,0,1,101,63.38a2.61,2.61,0,0,1,2.43-2.74,2.52,2.52,0,0,1,2.45,2.71,2.56,2.56,0,0,1-2.45,2.74Zm-5.83-7.34H94.38l-3.26,3.84h-.06V53.65H88.54V68h2.52V63.45h.06L94.5,68h3.33L93.89,63Zm28.08-.26a4.74,4.74,0,0,0-5,4.86,5,5,0,1,0,5-4.86Zm0,7.6a2.75,2.75,0,1,1,2.4-2.74,2.49,2.49,0,0,1-2.4,2.74Z"></path><path class="cls-3" d="M49.2,59A10.64,10.64,0,1,1,38.56,48.26,10.71,10.71,0,0,1,49.2,59ZM35,63.23a4.19,4.19,0,0,1,0-8.38h3V66.1a1.55,1.55,0,0,1-1.54-1.56V56.4H35a2.64,2.64,0,0,0,0,5.27h.59v1.56Zm6.5-8.38h.59a4.19,4.19,0,0,1,0,8.38h-3V52a1.54,1.54,0,0,1,1.53,1.56v8.14H42.1a2.64,2.64,0,0,0,0-5.27h-.59Z"></path><path class="cls-3" d="M62.45,50.72a.72.72,0,1,0-.7-.72A.71.71,0,0,0,62.45,50.72Zm-4.19.47a1.6,1.6,0,0,0-1.45.9h0v-.76h-1.1v4.72h1.16v-2.6a1.15,1.15,0,0,1,1.09-1.27c.74,0,.87.69.87,1.25v2.62H60V53.1a1.7,1.7,0,0,0-1.71-1.9Zm-4.93,4.86H54.5V51.33H53.33Zm21.16-5.33a.72.72,0,1,0-.7-.72.71.71,0,0,0,.7.72Zm-1.89.61v1h1.31v3.68h1.16V52.37h1.3v-1Zm-2,4.72h1.17V51.33H70.62v4.72ZM60.57,52.37h1.3v3.68H63V52.37h1.31v-1H60.57v1Zm7.7,1.55a1.15,1.15,0,0,1-1.09,1.28c-.74,0-.87-.7-.87-1.26V51.33H65.15v3a1.7,1.7,0,0,0,1.71,1.9,1.6,1.6,0,0,0,1.45-.89h0v.76h1.1V51.33H68.27v2.59Z"></path></g></g><g class="cls-4"><path class="cls-5" d="M36.65,30.39l-4.79,2.68,1.07-5.38-4-3.73,5.44-.64,2.3-5,2.3,5,5.44.64-4,3.73,1.06,5.38Z"></path></g><g class="cls-6"><path class="cls-5" d="M63.79,30.39,59,33.07l1.07-5.38L56,24l5.45-.64,2.3-5,2.29,5,5.45.64-4,3.73,1.07,5.38Z"></path></g><path class="cls-5" d="M90.92,30.39l-4.78,2.68,1.07-5.38-4-3.73,5.45-.64,2.29-5,2.3,5,5.45.64-4,3.73,1.07,5.38Z"></path><path class="cls-5" d="M118.06,30.39l-4.78,2.68,1.07-5.38-4-3.73,5.44-.64,2.3-5,2.3,5,5.44.64-4,3.73,1.07,5.38Z"></path><rect class="cls-1" x="137.06" y="18" width="16.28" height="16.28"></rect><polygon class="cls-5" points="145.2 18.34 145.2 18.34 142.9 23.32 137.46 23.96 141.48 27.69 140.41 33.07 145.2 30.39 145.2 30.39 145.2 18.34"></polygon></svg> 