<?xml version="1.0" encoding="UTF-8"?> <svg xmlns="http://www.w3.org/2000/svg" xmlns:xlink="http://www.w3.org/1999/xlink" id="Layer_1" data-name="Layer 1" viewBox="0 0 180 90"><defs><style> .cls-1 { fill: none; } .cls-2 { clip-path: url(#clip-path); } .cls-3 { fill: #eeff38; } .cls-4, .cls-5 { fill: #092332; } .cls-4 { fill-rule: evenodd; } .cls-6 { clip-path: url(#clip-path-2); } .cls-7 { clip-path: url(#clip-path-3); } .cls-8 { clip-path: url(#clip-path-4); } .cls-9 { clip-path: url(#clip-path-5); } </style><clipPath id="clip-path"><rect class="cls-1" x="73.13" y="42.14" width="32.56" height="32.56"></rect></clipPath><clipPath id="clip-path-2"><rect class="cls-1" x="54.14" y="18" width="16.28" height="16.28"></rect></clipPath><clipPath id="clip-path-3"><rect class="cls-1" x="81.27" y="18" width="16.28" height="16.28"></rect></clipPath><clipPath id="clip-path-4"><rect class="cls-1" x="108.41" y="18" width="16.28" height="16.28"></rect></clipPath><clipPath id="clip-path-5"><rect class="cls-1" x="135.55" y="18" width="16.28" height="16.28"></rect></clipPath></defs><g class="cls-2"><g><path class="cls-3" d="M98.46,57.23a.93.93,0,1,0,.93.92A.93.93,0,0,0,98.46,57.23Z"></path><path class="cls-4" d="M73.13,58.23A16.29,16.29,0,1,1,89.41,74.3,16.18,16.18,0,0,1,73.13,58.23ZM98.46,60.7A2.55,2.55,0,1,1,101,58.15,2.56,2.56,0,0,1,98.46,60.7Zm0-6.18a3.64,3.64,0,1,0,3.65,3.63A3.65,3.65,0,0,0,98.46,54.52Zm-13.39,3a2.59,2.59,0,0,1,5,0Zm5.92.7a.93.93,0,0,0,.18-.76,3.62,3.62,0,0,0-3.58-2.94A3.65,3.65,0,0,0,84,59.1a3.68,3.68,0,0,0,3.11,2.72,3.11,3.11,0,0,0,.43,0,3.41,3.41,0,0,0,.89-.12,3.72,3.72,0,0,0,1.09-.46,4,4,0,0,0,.94-.88l0,0a.64.64,0,0,0,.13-.46.55.55,0,0,0-.2-.35.61.61,0,0,0-.34-.12.56.56,0,0,0-.43.24l0,0-.16.21a2.66,2.66,0,0,1-.7.56,2.54,2.54,0,0,1-1.2.3,2.61,2.61,0,0,1-2.45-1.7,2.52,2.52,0,0,1-.11-.41v0h5.12A1,1,0,0,0,91,58.26Zm4.07-3.13a.52.52,0,0,0-.53-.52h-.15a2.12,2.12,0,0,0-1.25.4.53.53,0,0,0-1,.17v6.08a.53.53,0,0,0,1.06,0V57.51c0-1.21.1-1.72,1.16-1.85h.2A.53.53,0,0,0,95.06,55.13Zm-11.17.33-2.74,2.73,2.74,2.73a.54.54,0,0,1,.15.38.52.52,0,0,1-.53.52.51.51,0,0,1-.38-.16L80.4,58.94l-2.75,2.73a.51.51,0,0,1-.37.15.52.52,0,0,1-.37-.9l2.74-2.73-2.74-2.72a.55.55,0,0,1-.16-.38.53.53,0,0,1,.53-.53.52.52,0,0,1,.37.16l2.75,2.72,2.73-2.72a.55.55,0,0,1,.38-.16.53.53,0,0,1,.53.53A.51.51,0,0,1,83.89,55.46Z"></path></g></g><path class="cls-5" d="M35.14,30.39l-4.78,2.68,1.06-5.38L27.4,24l5.44-.64,2.3-5,2.3,5,5.44.64-4,3.73,1.07,5.38Z"></path><g class="cls-6"><path class="cls-5" d="M62.28,30.39l-4.79,2.68,1.07-5.38-4-3.73L60,23.32l2.3-5,2.3,5L70,24l-4,3.73,1.07,5.38Z"></path></g><g class="cls-7"><path class="cls-5" d="M89.42,30.39l-4.79,2.68,1.07-5.38-4-3.73,5.45-.64,2.3-5,2.29,5,5.45.64-4,3.73,1.07,5.38Z"></path></g><g class="cls-8"><path class="cls-5" d="M116.55,30.39l-4.78,2.68,1.07-5.38-4-3.73,5.45-.64,2.29-5,2.3,5,5.45.64-4,3.73,1.07,5.38Z"></path></g><g class="cls-9"><path class="cls-5" d="M143.69,30.39l-4.79,2.68L140,27.69,136,24l5.44-.64,2.3-5,2.3,5,5.44.64-4,3.73,1.07,5.38Z"></path></g></svg> 