<?xml version="1.0" encoding="UTF-8"?> <svg xmlns="http://www.w3.org/2000/svg" xmlns:xlink="http://www.w3.org/1999/xlink" id="Layer_1" data-name="Layer 1" viewBox="0 0 180 90"><defs><style> .cls-1 { fill: none; } .cls-2 { clip-path: url(#clip-path); } .cls-3, .cls-7 { fill: #092332; } .cls-4 { clip-path: url(#clip-path-2); } .cls-5 { clip-path: url(#clip-path-3); } .cls-6 { clip-path: url(#clip-path-4); } .cls-7 { fill-rule: evenodd; } .cls-8 { clip-path: url(#clip-path-5); } </style><clipPath id="clip-path"><rect class="cls-1" x="27.34" y="18" width="16.28" height="16.28"></rect></clipPath><clipPath id="clip-path-2"><rect class="cls-1" x="54.48" y="18" width="16.28" height="16.28"></rect></clipPath><clipPath id="clip-path-3"><rect class="cls-1" x="81.61" y="18" width="16.28" height="16.28"></rect></clipPath><clipPath id="clip-path-4"><rect class="cls-1" x="27.34" y="52.6" width="62.42" height="17.64"></rect></clipPath><clipPath id="clip-path-5"><rect class="cls-1" x="97.5" y="52.5" width="54" height="19"></rect></clipPath></defs><g class="cls-2"><path class="cls-3" d="M35.48,30.39,30.7,33.07l1.06-5.38-4-3.73,5.44-.64,2.3-5,2.3,5,5.44.64-4,3.73,1.07,5.38Z"></path></g><g class="cls-4"><path class="cls-3" d="M62.62,30.39l-4.79,2.68,1.07-5.38-4-3.73,5.44-.64,2.3-5,2.3,5,5.44.64-4,3.73,1.07,5.38Z"></path></g><g class="cls-5"><path class="cls-3" d="M89.76,30.39,85,33.07,86,27.69,82,24l5.45-.64,2.3-5,2.29,5L97.5,24l-4,3.73,1.07,5.38Z"></path></g><path class="cls-3" d="M116.89,30.39l-4.78,2.68,1.07-5.38-4-3.73,5.45-.64,2.29-5,2.3,5,5.45.64-4,3.73,1.07,5.38Z"></path><g class="cls-6"><g><path class="cls-3" d="M40.6,55.8l-1.29,0-1.14-1.1a.2.2,0,0,0-.14-.06V69.8l4.63-1.14S40.77,56,40.76,55.94A.18.18,0,0,0,40.6,55.8Z"></path><path class="cls-7" d="M40.6,55.8a.18.18,0,0,1,.16.14c0,.08,1.9,12.73,1.9,12.73L38,69.8,27.34,68s1.27-9.75,1.32-10.09.09-.47.57-.62l.9-.28.75-.23a6.39,6.39,0,0,1,.95-2.42,3.09,3.09,0,0,1,2.36-1.7,1.33,1.33,0,0,1,1.07.44l.07.07h.13A1.73,1.73,0,0,1,37,54.19a3.88,3.88,0,0,1,.25.6l.52-.16a.44.44,0,0,1,.38,0l1.14,1.1Zm-4.28-.72.41-.12c-.13-.43-.44-1.14-1.09-1.26a4.53,4.53,0,0,1,.26,1.51Zm-1.41.43.44-.13a3.89,3.89,0,0,0-.28-1.61,1.86,1.86,0,0,0-.61.43,4.32,4.32,0,0,0-.9,1.73Zm-.21-2.19a.91.91,0,0,0-.5-.13c-1.3,0-2.43,2-2.73,3.38l.13,0,1.33-.41A4.92,4.92,0,0,1,34,53.83,2.35,2.35,0,0,1,34.7,53.32Zm.23,6.82.53-2A2.81,2.81,0,0,0,34.07,58a3.2,3.2,0,0,0-3.31,3.38A2.36,2.36,0,0,0,32,63.29c.43.31.82.58.85,1.09a.65.65,0,0,1-.64.71,3.37,3.37,0,0,1-1.7-.66l-.36,1.51a3.49,3.49,0,0,0,2.64.89A2.48,2.48,0,0,0,35.12,64a2.86,2.86,0,0,0-1.68-2.27c-.47-.3-.85-.54-.87-.9,0-.17,0-.82,1-.88A3.05,3.05,0,0,1,34.93,60.14Z"></path><path class="cls-3" d="M48.93,62.4c-.54-.29-.81-.53-.81-.86s.38-.7,1-.7a3.61,3.61,0,0,1,1.32.28l.49-1.48a3.12,3.12,0,0,0-1.78-.35c-1.84,0-3.13,1.05-3.13,2.52a2.35,2.35,0,0,0,1.4,1.93c.65.37.87.62.87,1s-.32.72-.92.72A4.13,4.13,0,0,1,45.61,65l-.52,1.48a4,4,0,0,0,2.08.52c1.9,0,3.27-.92,3.27-2.59a2.44,2.44,0,0,0-1.51-2Zm7.57-3.13a2.85,2.85,0,0,0-2.23,1.11h0l.81-4.21H52.93l-2,10.7H53l.71-3.66C54,61.82,54.7,61,55.38,61c.47,0,.65.31.65.77a4.78,4.78,0,0,1-.09.92l-.8,4.19h2.11l.84-4.33a7.94,7.94,0,0,0,.15-1.36,1.67,1.67,0,0,0-1.74-1.89Zm6.52,0c-2.54,0-4.23,2.28-4.23,4.81A2.75,2.75,0,0,0,61.71,67c2.49,0,4.19-2.21,4.19-4.81A2.75,2.75,0,0,0,63,59.27ZM62,65.4c-.72,0-1-.6-1-1.36,0-1.19.63-3.15,1.78-3.15.74,0,1,.64,1,1.26C63.72,63.43,63.09,65.4,62,65.4Zm9.32-6.13a2.9,2.9,0,0,0-2.24,1.24h0l.12-1.13H67.28c-.09.76-.25,1.91-.43,2.78l-1.47,7.65H67.5l.58-3.1h0a2.48,2.48,0,0,0,1.25.28c2.48,0,4.1-2.52,4.1-5.07C73.48,60.53,72.85,59.27,71.3,59.27Zm-2,6.17a1.32,1.32,0,0,1-.87-.31l.35-2c.25-1.3.94-2.17,1.67-2.17s.85.59.85,1.16C71.27,63.51,70.46,65.44,69.27,65.44Zm7.23-9.16a1.19,1.19,0,0,0-1.21,1.21,1,1,0,0,0,1,1h0a1.19,1.19,0,0,0,1.24-1.22A1,1,0,0,0,76.5,56.28Zm-3,10.58h2.11l1.44-7.42H75Zm8.93-7.44H81l.07-.34c.12-.71.55-1.35,1.25-1.35a2.38,2.38,0,0,1,.68.1l.41-1.64A2.86,2.86,0,0,0,82.27,56a3.15,3.15,0,0,0-2.07.7A4,4,0,0,0,79,59.08l-.07.34h-1L77.61,61h1l-1.12,5.86h2.11L80.71,61h1.46l.31-1.58Zm5.09,0s-1.33,3.3-1.92,5.1h0c0-.58-.53-5.1-.53-5.1H82.88l1.27,6.82a.47.47,0,0,1,0,.34A3.62,3.62,0,0,1,83,67.86a4.43,4.43,0,0,1-1.2.59l.58,1.78a4.89,4.89,0,0,0,2.08-1.14,14.14,14.14,0,0,0,2.77-4.15l2.59-5.5Z"></path></g></g><path class="cls-3" d="M143.45,53.66a8,8,0,0,1,1.31,1.05,22,22,0,0,1,2,2.33,12.8,12.8,0,0,1,1.2,2,10.31,10.31,0,0,1,.81,2.26,8.14,8.14,0,0,1,0,3.74,9.28,9.28,0,0,1-3.23,4.47,11.86,11.86,0,0,1-3.85,2l-.13-.35a11.54,11.54,0,0,0,3.68-2,9.88,9.88,0,0,0,3.12-4.29,7.16,7.16,0,0,0,.23-3.26,12.11,12.11,0,0,0-.89-2.79A8.82,8.82,0,0,0,146.55,57a20.31,20.31,0,0,0-1.78-2.15,8.31,8.31,0,0,0-1.4-1.11Z"></path><path class="cls-3" d="M144,70.44a4.78,4.78,0,0,1,1.62-.2c1.14.13,1.25.83,1.25.83a2.42,2.42,0,0,1-1.44.17,1.63,1.63,0,0,1-1.43-.8Z"></path><path class="cls-3" d="M145.55,69.4a3.92,3.92,0,0,1,1.48-.35c1.26,0,1.33.66,1.33.66a2.62,2.62,0,0,1-1.46.31c-1.15,0-1.35-.62-1.35-.62Z"></path><path class="cls-3" d="M146.69,68.3a4.27,4.27,0,0,1,1.43-.8c1.21-.3,1.61.4,1.61.4a2.83,2.83,0,0,1-1.42.77A1.54,1.54,0,0,1,146.69,68.3Z"></path><path class="cls-3" d="M148,66.62a3.85,3.85,0,0,1,1.47-.91,1.49,1.49,0,0,1,1.64.34,2.71,2.71,0,0,1-1.4.81c-1.27.33-1.71-.24-1.71-.24Z"></path><path class="cls-3" d="M148.59,65.27A4.16,4.16,0,0,1,150,64a1.62,1.62,0,0,1,1.46,0,3,3,0,0,1-1.22,1.15,2,2,0,0,1-1.68.17Z"></path><path class="cls-3" d="M148.78,64.09c.3-.28.33-1.06.77-1.69a1.92,1.92,0,0,1,1.64-.81,3,3,0,0,1-.87,1.76,2.87,2.87,0,0,1-1.54.74Z"></path><path class="cls-3" d="M148.86,62.25a5.37,5.37,0,0,1,.23-1.68,1.83,1.83,0,0,1,1.34-1.2,3.06,3.06,0,0,1-.4,1.92c-.6.89-1.17,1-1.17,1Z"></path><path class="cls-3" d="M148.45,60.46a5,5,0,0,1-.09-1.56,1.55,1.55,0,0,1,1.07-1.38,3,3,0,0,1-.14,2c-.46,1-.84,1-.84,1Z"></path><path class="cls-3" d="M147.65,58.55a3.83,3.83,0,0,1-.27-1.49,1.89,1.89,0,0,1,.8-1.51,1.85,1.85,0,0,1,.3,2,1.55,1.55,0,0,1-.83,1Z"></path><path class="cls-3" d="M146.64,57a4.44,4.44,0,0,1-.6-1.47,2.72,2.72,0,0,1,.24-1.55s.76.33.73,1.6a3.08,3.08,0,0,1-.37,1.42Z"></path><path class="cls-3" d="M145.4,55.45a3.09,3.09,0,0,1-.71-1.39,2.75,2.75,0,0,1,.13-1.56,2,2,0,0,1,.78,1.57,2.91,2.91,0,0,1-.2,1.38Z"></path><path class="cls-3" d="M144.49,54.52a3.76,3.76,0,0,1-1.59-.27A3.39,3.39,0,0,1,141.68,53a1.78,1.78,0,0,1,1.8.33A3.71,3.71,0,0,1,144.49,54.52Z"></path><path class="cls-3" d="M145.66,55.78a2.48,2.48,0,0,0-1.38-.74,2.33,2.33,0,0,0-1.52.18,2.25,2.25,0,0,0,1.49.74,2.62,2.62,0,0,0,1.41-.18Z"></path><path class="cls-3" d="M146.71,57.13a2.44,2.44,0,0,0-1.36-.71,1.73,1.73,0,0,0-1.33.19,1.9,1.9,0,0,0,1.4.71,2,2,0,0,0,1.29-.19Z"></path><path class="cls-3" d="M147.74,58.9a3.06,3.06,0,0,0-1.27-1,1.87,1.87,0,0,0-1.63,0,2.61,2.61,0,0,0,1.34,1.09,2.78,2.78,0,0,0,1.56,0Z"></path><path class="cls-3" d="M148.34,60.46a3,3,0,0,0-1.19-1.11,1.91,1.91,0,0,0-1.62-.17,2.56,2.56,0,0,0,1.26,1.18,2.65,2.65,0,0,0,1.55.1Z"></path><path class="cls-3" d="M148.66,62.33A8.2,8.2,0,0,0,147.59,61a1.74,1.74,0,0,0-1.61-.36A3.66,3.66,0,0,0,147,61.91a2.62,2.62,0,0,0,1.62.42Z"></path><path class="cls-3" d="M148.62,64a7.86,7.86,0,0,0-.91-1.36,1.67,1.67,0,0,0-1.53-.54,3.36,3.36,0,0,0,.93,1.39,2.15,2.15,0,0,0,1.51.51Z"></path><path class="cls-3" d="M148.24,65.41c-.45-.67-.39-.83-.83-1.39A1.74,1.74,0,0,0,146,63.4a3.19,3.19,0,0,0,.79,1.41,2.46,2.46,0,0,0,1.47.6Z"></path><path class="cls-3" d="M147.51,66.75c-.28-.6-.23-1-.49-1.39a1.34,1.34,0,0,0-1.21-.76,4.46,4.46,0,0,0,.57,1.39,2.13,2.13,0,0,0,1.13.76Z"></path><path class="cls-3" d="M146.63,67.88c-.16-.64,0-.83-.17-1.3a1.32,1.32,0,0,0-1.05-1,2.93,2.93,0,0,0,.27,1.38,3.09,3.09,0,0,0,.95.89Z"></path><path class="cls-3" d="M144.86,66.63a2.37,2.37,0,0,0-.22,1.31c.15,1,.7,1.15.7,1.15a2.53,2.53,0,0,0,.27-1.38c0-1-.75-1.08-.75-1.08Z"></path><path class="cls-3" d="M143.7,67.64a2.66,2.66,0,0,0-.25,1.33c.09.91.6,1.13.6,1.13a2.6,2.6,0,0,0,.33-1.27c0-1.17-.68-1.19-.68-1.19Z"></path><path class="cls-3" d="M112.43,60.56c1.28,0,2.28-.68,2.28-1.84,0-.87-.48-1.31-1.41-1.48L111.91,57c-.37-.07-.53-.25-.53-.57s.37-.61,1-.61a.9.9,0,0,1,1,.71h1.19c-.11-1.09-.91-1.66-2.18-1.66s-2.2.56-2.2,1.64c0,.9.49,1.3,1.41,1.48l1.27.25c.43.08.65.31.65.67s-.41.72-1,.72a1.06,1.06,0,0,1-1.2-.83h-1.21A2.1,2.1,0,0,0,112.43,60.56Z"></path><path class="cls-3" d="M118,56.24c-.66,0-1.12.28-1.29,1.19V54.66h-1.22V60.5h1.22V58.08c0-.52.27-.82.75-.82s.7.3.7.78V60.5h1.22V57.92C119.35,56.87,118.83,56.24,118,56.24Z"></path><path class="cls-3" d="M122.16,60.56A2.15,2.15,0,1,0,120,58.41,2.06,2.06,0,0,0,122.16,60.56Zm0-1a1.19,1.19,0,1,1,1-1.17A1,1,0,0,1,122.16,59.58Z"></path><path class="cls-3" d="M127.71,56.25a1.45,1.45,0,0,0-1.53,1.29L126,56.32h-1V62h1.23V59.21c.2,1.07.81,1.36,1.43,1.36a1.92,1.92,0,0,0,1.76-2.16C129.42,57.2,128.73,56.25,127.71,56.25Zm-.5,3.34c-.61,0-1-.51-1-1.18s.37-1.18,1-1.18a1.2,1.2,0,0,1,0,2.36Z"></path><path class="cls-3" d="M130.91,55.8a.62.62,0,1,0,0-1.24.62.62,0,1,0,0,1.24Zm.61.52h-1.83v1h.61V60.5h1.22Z"></path><path class="cls-3" d="M134.44,55.72h.44v-.93h-1.13c-1.34,0-1.21,1.3-.09,1.53h-1.52v1h.61V60.5H134V57.28h.88v-1H134v0C134,55.81,134.09,55.72,134.44,55.72Z"></path><path class="cls-3" d="M138.44,56.32,137.37,60l-1.07-3.69h-1.24l1.38,4.19h.77c-.16.42-.33.57-.69.57h-.72v1h.89a1.48,1.48,0,0,0,1.59-1.2l1.4-4.55Z"></path><path class="cls-3" d="M111.81,68.34a1.55,1.55,0,0,1-.55,1.28,2.3,2.3,0,0,1-1.54.46A3.91,3.91,0,0,1,109,70a2.27,2.27,0,0,1-.59-.19v-.66a2.82,2.82,0,0,0,1.33.33,1.55,1.55,0,0,0,1-.3,1,1,0,0,0,.37-.81.76.76,0,0,0-.21-.53,3.07,3.07,0,0,0-.76-.56,2.55,2.55,0,0,1-.82-.66,1.35,1.35,0,0,1-.22-.78,1.51,1.51,0,0,1,.51-1.19,2,2,0,0,1,1.36-.46,3.38,3.38,0,0,1,.72.07,3.17,3.17,0,0,1,.7.26l-.26.58a2.06,2.06,0,0,0-.57-.23,2.23,2.23,0,0,0-.59-.09,1.29,1.29,0,0,0-.85.27.92.92,0,0,0-.31.74,1,1,0,0,0,.06.36,1.08,1.08,0,0,0,.21.28,3.32,3.32,0,0,0,.56.37,4.58,4.58,0,0,1,.77.54,1.27,1.27,0,0,1,.41,1Z"></path><path class="cls-3" d="M113.76,69.54a2,2,0,0,0,.57-.1V70L114,70a1.45,1.45,0,0,1-.31,0,1.1,1.1,0,0,1-.75-.23.88.88,0,0,1-.26-.7,2.6,2.6,0,0,1,.07-.58l.5-2.36h-.68l.06-.28.72-.31.49-.89h.38l-.21,1h1.07l-.1.49h-1.07l-.51,2.36a3.58,3.58,0,0,0-.07.52.45.45,0,0,0,.12.34A.43.43,0,0,0,113.76,69.54Z"></path><path class="cls-3" d="M117.27,65.64a1.1,1.1,0,0,1,.64.2,1.16,1.16,0,0,1,.44.55h0l.26-.67h.5L118.24,70h-.52l.1-.82h0a1.93,1.93,0,0,1-1.47.9,1,1,0,0,1-.85-.39,1.63,1.63,0,0,1-.31-1.06,4,4,0,0,1,.28-1.51A2.57,2.57,0,0,1,116.2,66,1.64,1.64,0,0,1,117.27,65.64Zm-.74,3.9a1.1,1.1,0,0,0,.75-.36,2.68,2.68,0,0,0,.61-1,3,3,0,0,0,.24-1.16.94.94,0,0,0-.22-.64.75.75,0,0,0-.58-.24,1,1,0,0,0-.75.34,2.1,2.1,0,0,0-.55.91,3.7,3.7,0,0,0-.2,1.21,1.05,1.05,0,0,0,.18.67A.68.68,0,0,0,116.53,69.54Z"></path><path class="cls-3" d="M121.39,71.92a1.44,1.44,0,0,1-.49-.08v-.55a1.29,1.29,0,0,0,.45.09.51.51,0,0,0,.43-.23,2,2,0,0,0,.27-.71l.89-4.23h-1.88l-.91,4.29a2.09,2.09,0,0,1-.47,1.08,1.06,1.06,0,0,1-.83.34,1.53,1.53,0,0,1-.49-.08v-.55a1.37,1.37,0,0,0,.44.09.56.56,0,0,0,.45-.23,2,2,0,0,0,.27-.71l.88-4.23h-.75l0-.26.8-.25.1-.4a2.26,2.26,0,0,1,.49-1.1,1.3,1.3,0,0,1,1-.32,1.47,1.47,0,0,1,.38,0,1.58,1.58,0,0,1,.35.09l-.17.51a1.43,1.43,0,0,0-.53-.12.71.71,0,0,0-.53.2,1.5,1.5,0,0,0-.29.69l-.1.42H123l.09-.42a2.35,2.35,0,0,1,.49-1.1,1.3,1.3,0,0,1,.95-.32,1.89,1.89,0,0,1,.38,0,1.79,1.79,0,0,1,.36.1l-.17.51a1.47,1.47,0,0,0-.54-.12.69.69,0,0,0-.53.2,1.68,1.68,0,0,0-.28.69l-.1.42h.94l-.1.49h-.93l-.91,4.29a2.22,2.22,0,0,1-.48,1.09A1.08,1.08,0,0,1,121.39,71.92Z"></path><path class="cls-3" d="M130.83,65.76a1.77,1.77,0,0,1-.64,1.48,3,3,0,0,1-1.88.51h-.53L127.3,70h-.66l1.21-5.71h1.29a1.86,1.86,0,0,1,1.26.37A1.35,1.35,0,0,1,130.83,65.76Zm-2.93,1.42h.53a2,2,0,0,0,1.28-.35,1.27,1.27,0,0,0,.43-1,.86.86,0,0,0-.27-.71,1.35,1.35,0,0,0-.83-.22h-.64Z"></path><path class="cls-3" d="M131.68,70H131l.91-4.28h.66Zm.44-5.38a.48.48,0,0,1,.13-.35.42.42,0,0,1,.32-.14.31.31,0,0,1,.35.35.52.52,0,0,1-.14.36.37.37,0,0,1-.3.15.35.35,0,0,1-.25-.09A.38.38,0,0,1,132.12,64.62Z"></path><path class="cls-3" d="M134.76,70.08a1.46,1.46,0,0,1-1.59-1.6,3.6,3.6,0,0,1,.29-1.44,2.45,2.45,0,0,1,.8-1,1.87,1.87,0,0,1,1.14-.37,2.92,2.92,0,0,1,1,.2l-.18.55a2.31,2.31,0,0,0-.86-.2,1.23,1.23,0,0,0-.8.3,2,2,0,0,0-.57.83,3.36,3.36,0,0,0-.2,1.16,1.13,1.13,0,0,0,.26.78,1,1,0,0,0,.72.28,1.84,1.84,0,0,0,.53-.08l.49-.19v.56A2.26,2.26,0,0,1,134.76,70.08Z"></path><path class="cls-3" d="M137.64,67.82l2.05-2.1h.79l-1.83,1.82L139.8,70h-.73l-.92-2-.6.48L137.24,70h-.67l1.29-6.08h.66c-.18.88-.35,1.66-.5,2.35a13.65,13.65,0,0,1-.4,1.55Z"></path><g class="cls-8"><g><path class="cls-3" d="M105.55,53.66a8.11,8.11,0,0,0-1.32,1.05,24.59,24.59,0,0,0-2,2.33,12.8,12.8,0,0,0-1.2,2,10.31,10.31,0,0,0-.81,2.26,8,8,0,0,0,.05,3.74,9.26,9.26,0,0,0,3.22,4.47,12,12,0,0,0,3.85,2l.14-.35a11.43,11.43,0,0,1-3.68-2,9.9,9.9,0,0,1-3.13-4.29,7.3,7.3,0,0,1-.23-3.26,12.13,12.13,0,0,1,.9-2.79A8.78,8.78,0,0,1,102.44,57a21.6,21.6,0,0,1,1.78-2.15,8,8,0,0,1,1.41-1.11Z"></path><path class="cls-3" d="M105,70.44a4.86,4.86,0,0,0-1.63-.2c-1.14.13-1.24.83-1.24.83a2.42,2.42,0,0,0,1.44.17,1.63,1.63,0,0,0,1.43-.8Z"></path><path class="cls-3" d="M103.45,69.4a4,4,0,0,0-1.49-.35c-1.25,0-1.33.66-1.33.66a2.66,2.66,0,0,0,1.46.31c1.16,0,1.36-.62,1.36-.62Z"></path><path class="cls-3" d="M102.31,68.3a4.39,4.39,0,0,0-1.43-.8c-1.22-.3-1.62.4-1.62.4a2.84,2.84,0,0,0,1.43.77A1.55,1.55,0,0,0,102.31,68.3Z"></path><path class="cls-3" d="M101,66.62a3.85,3.85,0,0,0-1.47-.91,1.52,1.52,0,0,0-1.65.34,2.77,2.77,0,0,0,1.4.81C100.58,67.19,101,66.62,101,66.62Z"></path><path class="cls-3" d="M100.4,65.27A4.05,4.05,0,0,0,99,64a1.63,1.63,0,0,0-1.46,0,3.1,3.1,0,0,0,1.22,1.15,2,2,0,0,0,1.68.17Z"></path><path class="cls-3" d="M100.22,64.09c-.31-.28-.33-1.06-.77-1.69a1.93,1.93,0,0,0-1.65-.81,3,3,0,0,0,.88,1.76,2.87,2.87,0,0,0,1.54.74Z"></path><path class="cls-3" d="M100.13,62.25a5.56,5.56,0,0,0-.22-1.68,1.86,1.86,0,0,0-1.35-1.2A3.1,3.1,0,0,0,99,61.29c.6.89,1.16,1,1.16,1Z"></path><path class="cls-3" d="M100.54,60.46a4.81,4.81,0,0,0,.1-1.56,1.56,1.56,0,0,0-1.07-1.38,3.08,3.08,0,0,0,.13,2c.47,1,.84,1,.84,1Z"></path><path class="cls-3" d="M101.34,58.55a3.83,3.83,0,0,0,.27-1.49,1.83,1.83,0,0,0-.8-1.51,1.88,1.88,0,0,0-.3,2,1.58,1.58,0,0,0,.83,1Z"></path><path class="cls-3" d="M102.35,57a4.44,4.44,0,0,0,.6-1.47,2.84,2.84,0,0,0-.23-1.55s-.76.33-.74,1.6a3.08,3.08,0,0,0,.37,1.42Z"></path><path class="cls-3" d="M103.6,55.45a3,3,0,0,0,.7-1.39,2.87,2.87,0,0,0-.12-1.56,2,2,0,0,0-.79,1.57,2.72,2.72,0,0,0,.21,1.38Z"></path><path class="cls-3" d="M104.5,54.52a3.8,3.8,0,0,0,1.6-.27A3.26,3.26,0,0,0,107.31,53a1.78,1.78,0,0,0-1.8.33A3.87,3.87,0,0,0,104.5,54.52Z"></path><path class="cls-3" d="M103.33,55.78a2.53,2.53,0,0,1,1.38-.74,2.35,2.35,0,0,1,1.53.18,2.29,2.29,0,0,1-1.5.74,2.67,2.67,0,0,1-1.41-.18Z"></path><path class="cls-3" d="M102.28,57.13a2.44,2.44,0,0,1,1.36-.71,1.72,1.72,0,0,1,1.33.19,1.9,1.9,0,0,1-1.4.71,2,2,0,0,1-1.29-.19Z"></path><path class="cls-3" d="M101.26,58.9a3,3,0,0,1,1.27-1,1.87,1.87,0,0,1,1.63,0,2.69,2.69,0,0,1-1.35,1.09,2.74,2.74,0,0,1-1.55,0Z"></path><path class="cls-3" d="M100.65,60.46a3,3,0,0,1,1.2-1.11,1.91,1.91,0,0,1,1.62-.17,2.6,2.6,0,0,1-1.27,1.18,2.65,2.65,0,0,1-1.55.1Z"></path><path class="cls-3" d="M100.33,62.33A8.2,8.2,0,0,1,101.4,61a1.75,1.75,0,0,1,1.61-.36A3.55,3.55,0,0,1,102,61.91a2.62,2.62,0,0,1-1.62.42Z"></path><path class="cls-3" d="M100.38,64a6.85,6.85,0,0,1,.91-1.36,1.67,1.67,0,0,1,1.53-.54,3.57,3.57,0,0,1-.93,1.39,2.16,2.16,0,0,1-1.51.51Z"></path><path class="cls-3" d="M100.76,65.41c.44-.67.39-.83.82-1.39A1.77,1.77,0,0,1,103,63.4a3.29,3.29,0,0,1-.79,1.41,2.46,2.46,0,0,1-1.47.6Z"></path><path class="cls-3" d="M101.49,66.75c.28-.6.23-1,.48-1.39a1.35,1.35,0,0,1,1.22-.76,4.72,4.72,0,0,1-.57,1.39,2.17,2.17,0,0,1-1.13.76Z"></path><path class="cls-3" d="M102.37,67.88c.16-.64,0-.83.16-1.3a1.32,1.32,0,0,1,1-1,2.81,2.81,0,0,1-.27,1.38,3.06,3.06,0,0,1-.94.89Z"></path><path class="cls-3" d="M104.14,66.63a2.31,2.31,0,0,1,.21,1.31c-.15,1-.69,1.15-.69,1.15a2.47,2.47,0,0,1-.28-1.38c0-1,.76-1.08.76-1.08Z"></path><path class="cls-3" d="M105.29,67.64a2.66,2.66,0,0,1,.25,1.33c-.09.91-.59,1.13-.59,1.13a2.6,2.6,0,0,1-.33-1.27c0-1.17.67-1.19.67-1.19Z"></path></g></g><polygon class="cls-3" points="145.2 18.34 145.2 18.34 142.9 23.32 137.46 23.96 141.48 27.69 140.41 33.07 145.2 30.39 145.2 30.39 145.2 18.34"></polygon></svg> 